<svg width="512" height="512" viewBox="0 0 512 512" fill="none" xmlns="http://www.w3.org/2000/svg">
<g clip-path="url(#clip0_284_442)">
<path d="M136.766 20.317C139.776 20.3307 139.776 20.3307 142.846 20.3446C144.375 20.3564 145.904 20.3681 147.479 20.3802C163.106 66.6147 178.515 112.928 193.789 159.299C195.85 165.551 197.912 171.803 199.973 178.055C204.931 193.093 209.887 208.132 214.841 223.171C215.293 221.026 215.745 218.881 216.21 216.671C216.831 213.829 217.451 210.986 218.091 208.058C218.694 205.252 219.297 202.447 219.919 199.556C226.337 175.773 239.706 157.628 259.411 145.217C272.661 137.761 283.102 134.757 298.175 134.95C300.614 134.974 303.052 134.998 305.564 135.023C308.341 135.07 308.341 135.07 311.174 135.117C329.327 169.562 346.691 204.438 363.918 239.426C364.816 241.245 365.713 243.065 366.638 244.94C368.328 248.368 370.015 251.798 371.699 255.23C376.165 264.283 380.828 273.144 385.82 281.874C386.208 279.748 386.595 277.622 386.994 275.432C390.487 258.118 393.058 245.763 405.505 233.844C419.625 224.579 431.869 224.424 447.58 228.508C459.562 234.956 466.303 242.35 472.406 255.191C475.774 275.548 474.218 294.451 472.093 314.894C471.681 319.517 471.681 319.517 471.261 324.233C467.791 358.716 459.226 388.379 433.652 410.786C418.739 421.979 404.879 426.414 386.699 426.149C384.276 426.122 381.853 426.095 379.357 426.067C377.526 426.033 375.694 425.998 373.807 425.962C372.607 423.521 371.406 421.08 370.169 418.565C346.789 371.048 323.341 323.587 299.154 276.537C298.83 280.165 298.83 280.165 298.499 283.867C297.655 293.004 296.758 302.132 295.827 311.259C295.438 315.179 295.068 319.102 294.721 323.026C291.878 354.879 286.16 382.444 264.357 405.95C244.065 423.572 223.535 427.524 198.026 425.962C190.429 408.511 184.16 390.808 178.335 372.596C176.997 368.455 176.997 368.455 175.632 364.231C172.8 355.46 169.982 346.684 167.164 337.908C164.369 329.233 161.571 320.56 158.773 311.886C156.959 306.26 155.145 300.634 153.333 295.007C145.889 271.909 138.32 248.86 130.671 225.839C127.376 246.937 124.945 268.063 122.863 289.336C122.611 291.913 122.359 294.49 122.099 297.144C121.054 307.893 120.019 318.643 118.994 329.394C118.234 337.333 117.458 345.271 116.681 353.209C116.457 355.603 116.234 357.996 116.003 360.463C111.537 405.796 111.537 405.796 96.5043 420.625C84.5377 428.325 73.3328 429.869 59.6459 427.484C48.2396 424.156 41.4504 417.873 34.2222 408.057C28.8783 397.9 28.3857 392.319 28.5869 380.739C28.6179 378.911 28.6488 377.083 28.6807 375.199C29.3788 348.586 32.2783 322.105 34.9496 295.663C35.5226 289.872 36.0948 284.081 36.666 278.29C37.8612 266.23 39.073 254.172 40.2958 242.116C41.854 226.731 43.3612 211.342 44.8549 195.95C46.0201 184.018 47.2169 172.09 48.4225 160.163C48.9912 154.492 49.5492 148.819 50.096 143.144C57.6843 64.7964 57.6843 64.7964 88.1009 36.39C103.777 25.4666 118.097 20.2069 136.766 20.317Z" fill="#F5750D"/>
<path d="M308.704 137.785C310.339 137.785 311.973 137.785 313.656 137.785C314.404 139.337 315.153 140.889 315.924 142.487C338.555 189.353 361.879 235.769 385.82 281.873C386.401 278.685 386.401 278.685 386.993 275.432C390.487 258.118 393.058 245.763 405.505 233.844C419.624 224.579 431.869 224.424 447.58 228.507C459.562 234.956 466.303 242.35 472.405 255.19C475.774 275.548 474.217 294.451 472.093 314.894C471.818 317.976 471.544 321.057 471.261 324.233C467.791 358.716 459.226 388.379 433.652 410.786C418.739 421.979 404.879 426.414 386.699 426.149C384.276 426.122 381.853 426.095 379.357 426.067C377.526 426.032 375.694 425.998 373.807 425.962C372.607 423.521 371.406 421.08 370.169 418.565C347.541 372.578 324.869 326.63 301.466 281.092C289.491 257.505 300.56 216.147 303.628 190.462C305.714 172.93 307.387 155.407 308.704 137.785Z" fill="#F5750D"/>
<path d="M298.272 134.94C301.908 134.978 301.908 134.978 305.618 135.017C307.452 135.05 309.285 135.083 311.174 135.117C310.245 146.214 309.306 157.31 308.357 168.406C308.037 172.162 307.72 175.919 307.406 179.676C305.82 198.644 304.095 217.512 301.508 236.356C298.316 259.935 296.755 283.64 295.08 307.392C292.382 345.286 289.929 379.112 263.122 406.95C243.627 423.884 222.526 427.8 198.026 425.962C197.353 406.545 199.766 387.965 202.213 368.76C205.352 343.572 208.074 318.384 210.193 293.068C210.398 290.63 210.603 288.192 210.814 285.68C211.818 273.64 212.785 261.599 213.711 249.552C216.525 214.278 219.88 182.304 244.565 156.432C261.229 141.447 276.502 134.641 298.272 134.94Z" fill="#F5750D"/>
<path d="M147.493 25.7168C152.186 33.2728 154.599 39.3628 157.373 47.8723C158.323 50.7703 159.273 53.6683 160.253 56.6541C161.272 59.7973 162.29 62.9406 163.34 66.1791C164.405 69.436 165.47 72.693 166.568 76.0486C169.41 84.7396 172.24 93.4352 175.067 102.132C178.443 112.513 181.834 122.888 185.225 133.263C187.96 141.633 190.685 150.005 193.395 158.384C197.887 172.247 202.398 186.076 207.334 199.765C214.957 221.035 219.469 238.53 216.486 261.528C216.215 264.239 215.944 266.95 215.665 269.743C215.053 275.762 214.396 281.776 213.702 287.785C212.415 299.113 211.297 310.453 210.198 321.804C203.517 389.893 203.517 389.893 198.019 423.293C192.309 417.157 191.028 412.896 188.415 404.726C187.522 401.961 186.63 399.195 185.71 396.346C184.754 393.331 183.797 390.315 182.811 387.209C181.807 384.086 180.803 380.962 179.769 377.744C177.086 369.39 174.416 361.031 171.752 352.67C168.067 341.116 164.357 329.571 160.65 318.025C158.581 311.567 156.521 305.106 154.47 298.643C149.889 284.24 145.239 269.896 140.186 255.676C131.561 231.243 125.347 211.445 129.02 184.981C129.454 180.81 129.454 180.81 129.898 176.555C130.809 168.059 131.873 159.598 132.957 151.127C133.549 145.917 134.132 140.705 134.706 135.492C135.836 125.427 137.033 115.375 138.295 105.328C140.444 88.2045 142.386 71.0551 144.315 53.9007C144.633 51.0835 144.951 48.2662 145.279 45.3636C146.019 38.8149 146.757 32.2659 147.493 25.7168Z" fill="url(#paint0_linear_284_442)"/>
<path d="M308.704 137.785C310.339 137.785 311.973 137.785 313.656 137.785C314.404 139.337 315.153 140.889 315.924 142.487C332.415 176.638 349.188 210.596 366.441 244.309C367.556 246.539 368.672 248.77 369.821 251.068C373.343 257.983 373.343 257.983 377.656 264.774C389.968 285.626 389.057 300.656 385.929 324.566C385.313 330.652 384.75 336.742 384.184 342.834C383.178 353.541 382.055 364.235 380.95 374.93C380.495 379.388 380.041 383.846 379.587 388.303C378.488 399.078 377.381 409.852 376.27 420.625C374.636 420.625 373.001 420.625 371.318 420.625C370.193 418.346 369.068 416.067 367.908 413.719C346.018 369.392 324.053 325.122 301.506 281.176C289.505 257.506 300.549 216.236 303.628 190.462C305.714 172.93 307.387 155.407 308.704 137.785Z" fill="url(#paint1_linear_284_442)"/>
</g>
<defs>
<linearGradient id="paint0_linear_284_442" x1="172.175" y1="25.7168" x2="172.175" y2="423.293" gradientUnits="userSpaceOnUse">
<stop stop-color="#FFE600"/>
<stop offset="1" stop-color="#FAF013" stop-opacity="0"/>
</linearGradient>
<linearGradient id="paint1_linear_284_442" x1="341.632" y1="137.785" x2="341.632" y2="420.625" gradientUnits="userSpaceOnUse">
<stop stop-color="#FFE600"/>
<stop offset="1" stop-color="#FAF013" stop-opacity="0"/>
</linearGradient>
<clipPath id="clip0_284_442">
<rect width="510" height="512" fill="white" transform="matrix(1 0 0.00254022 0.999997 0 0)"/>
</clipPath>
</defs>
</svg>
