<?xml version="1.0" encoding="UTF-8"?>
<svg version="1.1" xmlns="http://www.w3.org/2000/svg" width="200" height="240">
<path d="M0 0 C1.21553558 0.00512856 1.21553558 0.00512856 2.45562744 0.01036072 C3.07322937 0.01475662 3.6908313 0.01915253 4.32714844 0.02368164 C10.59151978 17.35101299 16.76788888 34.70800068 22.88964844 52.08618164 C23.71574515 54.4293071 24.54191675 56.77240616 25.36816406 59.11547852 C27.3553498 64.75124421 29.34163279 70.38732736 31.32714844 76.02368164 C31.51180664 75.21979004 31.69646484 74.41589844 31.88671875 73.58764648 C32.1403418 72.52239746 32.39396484 71.45714844 32.65527344 70.35961914 C32.90180664 69.30822754 33.14833984 68.25683594 33.40234375 67.17358398 C36.01923381 58.26040672 41.43755813 51.46019681 49.40917969 46.80883789 C54.76891207 44.01461748 58.98906302 42.88870443 65.07714844 42.96118164 C66.06199219 42.97020508 67.04683594 42.97922852 68.06152344 42.98852539 C69.18300781 43.00592773 69.18300781 43.00592773 70.32714844 43.02368164 C77.62418911 55.93245139 84.60190696 69.00322566 91.52416992 82.11547852 C91.88478516 82.79744797 92.24540039 83.47941742 92.61694336 84.18205261 C93.29616953 85.46680434 93.9742276 86.75217459 94.65087891 88.0382843 C96.44518588 91.43137156 98.31955013 94.7522256 100.32714844 98.02368164 C100.48570312 97.22704102 100.64425781 96.43040039 100.80761719 95.60961914 C102.23644141 89.12070471 103.28758345 84.49056879 108.32714844 80.02368164 C114.0397776 76.55129921 118.98549365 76.49329883 125.32714844 78.02368164 C130.16030826 80.44026155 132.87561811 83.21141841 135.32714844 88.02368164 C136.6667266 95.6531182 136.01874915 102.73734016 135.13964844 110.39868164 C134.96852539 112.13118164 134.96852539 112.13118164 134.79394531 113.89868164 C133.35721784 126.82193582 129.86722299 137.93886471 119.51464844 146.33618164 C113.4794793 150.5310814 107.87679051 152.19314417 100.53417969 152.09399414 C99.55553955 152.08384277 98.57689941 152.07369141 97.56860352 152.06323242 C96.82892334 152.05018066 96.08924316 152.03712891 95.32714844 152.02368164 C94.8447168 151.10893066 94.36228516 150.19417969 93.86523438 149.25170898 C84.47032703 131.44378066 75.04818087 113.65650587 65.32714844 96.02368164 C65.19252197 97.38348145 65.19252197 97.38348145 65.05517578 98.77075195 C64.70471084 102.19509559 64.3330707 105.61584539 63.94775391 109.03637695 C63.78647269 110.50554301 63.63321684 111.97561665 63.48876953 113.4465332 C62.30805677 125.38394638 59.96999828 135.71441668 51.13964844 144.52368164 C42.92537252 151.12812459 34.6289045 152.60930532 24.32714844 152.02368164 C21.27650803 145.48362132 18.76260692 138.84893963 16.42871094 132.02368164 C15.89254654 130.47185181 15.89254654 130.47185181 15.34555054 128.88867188 C14.21068452 125.6016145 13.08123171 122.31272928 11.95214844 119.02368164 C10.83214801 115.77267694 9.71102163 112.52206211 8.58978271 109.27148438 C7.86262243 107.16308719 7.13593094 105.05452825 6.409729 102.94580078 C3.42654127 94.28927378 0.39333217 85.65112459 -2.67285156 77.02368164 C-4.02528399 84.93050029 -5.02896292 92.84775617 -5.89160156 100.82055664 C-5.99609619 101.7861853 -6.10059082 102.75181396 -6.20825195 103.7467041 C-6.64146187 107.77496149 -7.07050584 111.80364235 -7.49560547 115.83276367 C-7.81071255 118.80834999 -8.13207298 121.78321256 -8.45410156 124.75805664 C-8.54687378 125.65514343 -8.639646 126.55223022 -8.73522949 127.47650146 C-10.58597219 144.46609612 -10.58597219 144.46609612 -16.67285156 150.02368164 C-21.51418557 152.90945497 -26.04157469 153.48801473 -31.56738281 152.59399414 C-36.171103 151.34697531 -38.90688424 148.99218787 -41.81634521 145.31340027 C-43.96436354 141.50712408 -44.15762043 139.41553438 -44.06445312 135.07568359 C-44.05008335 134.39053082 -44.03571358 133.70537806 -44.02090836 132.99946308 C-43.71162199 123.02564815 -42.5133244 113.10109817 -41.40722656 103.19165039 C-41.1698243 101.02130524 -40.9327911 98.85091969 -40.69610596 96.68049622 C-40.20100527 92.1608257 -39.69917332 87.64196397 -39.19287109 83.12353516 C-38.54771379 77.35802191 -37.923163 71.59048316 -37.30404282 65.82212353 C-36.82116369 61.3504362 -36.32555612 56.88022639 -35.82636261 52.41033363 C-35.59084116 50.28472424 -35.35961106 48.15863444 -35.13292694 46.03206444 C-31.98755413 16.66956938 -31.98755413 16.66956938 -19.67285156 6.02368164 C-13.32986672 1.92991546 -7.54039023 -0.04126709 0 0 Z " fill="#AF6ECE" transform="translate(48.6728515625,60.976318359375)"/>
<path d="M0 0 C0.66 0 1.32 0 2 0 C2.30067383 0.58152832 2.60134766 1.16305664 2.91113281 1.76220703 C12.00401274 19.32596717 21.3771874 36.72131012 31 54 C31.23783203 52.80503906 31.23783203 52.80503906 31.48046875 51.5859375 C32.90929297 45.09702307 33.96043501 40.46688715 39 36 C44.71262916 32.52761757 49.65834521 32.46961719 56 34 C60.83315982 36.41657991 63.54846968 39.18773677 66 44 C67.33957816 51.62943656 66.69160071 58.71365852 65.8125 66.375 C65.69841797 67.53 65.58433594 68.685 65.46679688 69.875 C64.03006941 82.79825418 60.54007455 93.91518307 50.1875 102.3125 C44.15233086 106.50739976 38.54964207 108.16946253 31.20703125 108.0703125 C30.22839111 108.06016113 29.24975098 108.05000977 28.24145508 108.03955078 C27.5017749 108.02649902 26.76209473 108.01344727 26 108 C25.51756836 107.08524902 25.03513672 106.17049805 24.53808594 105.22802734 C15.44557643 87.99327544 6.3353981 70.77350583 -3.07055664 53.70703125 C-7.88352697 44.86744928 -3.37002435 29.36755557 -2.10449219 19.74169922 C-1.24381432 13.17113184 -0.55005764 6.60392727 0 0 Z " fill="#AE6FCE" transform="translate(118,105)"/>
<path d="M0 0 C1.46880615 0.0143811 1.46880615 0.0143811 2.96728516 0.02905273 C3.70769043 0.04137939 4.4480957 0.05370605 5.2109375 0.06640625 C4.82468841 4.22535684 4.4338116 8.38384183 4.0390625 12.54199219 C3.90602523 13.94975678 3.77414544 15.35763135 3.64355469 16.765625 C2.98345431 23.87439831 2.26722836 30.94571321 1.203125 38.0078125 C-0.11042182 46.84440022 -0.76544031 55.72832747 -1.46630859 64.63012695 C-2.59476724 78.8317017 -3.62030964 91.50870329 -14.4765625 101.94140625 C-22.36822484 108.28774308 -30.89480486 109.7553681 -40.7890625 109.06640625 C-41.04091404 101.78969573 -40.04699033 94.82620611 -39.0390625 87.62890625 C-37.74528688 78.18914679 -36.62000724 68.749448 -35.73828125 59.26171875 C-35.65295135 58.34798996 -35.56762146 57.43426117 -35.47970581 56.49284363 C-35.0617805 51.98090884 -34.65891132 47.46810355 -34.27246094 42.95336914 C-33.09991731 29.73349286 -31.71196598 17.75057817 -21.71484375 8.0546875 C-14.96853225 2.43864808 -8.79275416 -0.11205159 0 0 Z " fill="#AE6FCF" transform="translate(113.7890625,103.93359375)"/>
<path d="M0 0 C1.88784796 2.83177194 2.85616807 5.1141109 3.96777344 8.30322266 C4.34867126 9.38930817 4.72956909 10.47539368 5.12200928 11.59439087 C5.53033997 12.77238251 5.93867065 13.95037415 6.359375 15.1640625 C6.78623596 16.38467377 7.21309692 17.60528503 7.65289307 18.86288452 C8.79192619 22.12000931 9.92592909 25.37886335 11.05883789 28.63812256 C12.41216018 32.52850586 13.77106507 36.41694286 15.13018608 40.30530357 C16.22614162 43.44185366 17.3180432 46.57971996 18.40432739 49.71963501 C20.20413055 54.91504902 22.01232511 60.09796268 23.99169922 65.22802734 C27.04888983 73.19966121 28.85333787 79.75611193 27.625 88.375 C27.51285156 89.39102295 27.40070313 90.4070459 27.28515625 91.45385742 C27.03149127 93.70964001 26.76015617 95.96348715 26.47363281 98.21533203 C25.94234255 102.46072461 25.47911029 106.71081959 25.0234375 110.96484375 C22.2549409 136.48237927 22.2549409 136.48237927 20 149 C17.70022294 146.70022294 17.18699157 145.10348724 16.13989258 142.04150391 C15.78224319 141.00506744 15.42459381 139.96863098 15.05610657 138.90078735 C14.67278671 137.77079315 14.28946686 136.64079895 13.89453125 135.4765625 C13.49223801 134.3060434 13.08994476 133.13552429 12.67546082 131.92953491 C11.60046733 128.79859609 10.53049648 125.6660327 9.4630127 122.53253174 C7.98631871 118.20234622 6.49962638 113.87557913 5.01428223 109.5483551 C4.18539524 107.12825832 3.35994623 104.70698127 2.53796387 102.28453064 C0.7026227 96.88667672 -1.16077513 91.51117007 -3.1875 86.18188477 C-6.645774 77.02512725 -9.13551651 69.6053345 -7.625 59.6875 C-7.44505493 58.1243103 -7.44505493 58.1243103 -7.26147461 56.52954102 C-6.88467804 53.34564603 -6.44636183 50.17479204 -6 47 C-5.75543449 45.0473324 -5.51445198 43.09421215 -5.27734375 41.140625 C-4.81070217 37.36831113 -4.31687315 33.60126083 -3.796875 29.8359375 C-2.91125995 23.41853294 -2.10938133 16.9914391 -1.3125 10.5625 C-1.18109619 9.50667725 -1.04969238 8.45085449 -0.91430664 7.36303711 C-0.60893271 4.90876591 -0.30415411 2.45442261 0 0 Z " fill="#4141C1" transform="translate(53,63)"/>
<path d="M0 0 C0.66 0 1.32 0 2 0 C2.30067383 0.58152832 2.60134766 1.16305664 2.91113281 1.76220703 C9.53708567 14.56086351 16.27705756 27.28728943 23.2109375 39.921875 C23.65920898 40.75783203 24.10748047 41.59378906 24.56933594 42.45507812 C25.98501483 45.04644902 25.98501483 45.04644902 27.71972656 47.59179688 C32.67159083 55.40632389 32.28796301 61.03899459 31 70 C30.74506539 72.28075317 30.51124587 74.56319803 30.27670288 76.84613037 C29.85908208 80.85899047 29.39470889 84.86649432 28.9375 88.875 C28.74908916 90.54554364 28.56093658 92.21611642 28.37304688 93.88671875 C27.91833151 97.9248203 27.46015688 101.96251507 27 106 C26.34 106 25.68 106 25 106 C24.54786133 105.14583496 24.09572266 104.29166992 23.62988281 103.41162109 C14.83361716 86.79932053 6.00711095 70.20828815 -3.0546875 53.73876953 C-7.87753108 44.86782635 -3.37439863 29.40082708 -2.10449219 19.74169922 C-1.24381432 13.17113184 -0.55005764 6.60392727 0 0 Z " fill="#4241C2" transform="translate(118,105)"/>
</svg>
